<svg width="948" height="796" viewBox="0 0 948 796" fill="none" xmlns="http://www.w3.org/2000/svg">
<path d="M454.631 744.05C610.95 744.05 737.671 724.498 737.671 700.38C737.671 676.262 610.95 656.71 454.631 656.71C298.312 656.71 171.591 676.262 171.591 700.38C171.591 724.498 298.312 744.05 454.631 744.05Z" fill="#FFC1EB"/>
<path d="M285.75 612.442L284.274 615.626C283.341 617.641 284.217 620.031 286.231 620.964L362.593 656.345C364.607 657.278 366.997 656.402 367.93 654.388L369.406 651.203C370.339 649.188 369.463 646.799 367.449 645.865L291.087 610.484C289.073 609.551 286.683 610.427 285.75 612.442Z" fill="black"/>
<path d="M287.361 586.16L325.361 596.16L376.691 619.95L367.931 638.87C367.127 640.599 365.67 641.939 363.88 642.595C362.089 643.251 360.112 643.17 358.381 642.37L290.811 611.07L287.361 586.16Z" fill="white"/>
<path d="M361.391 645.02C360.061 645.021 358.747 644.731 357.541 644.17L288.981 612.42L284.981 583.42L326.221 594.31L379.351 619.02L369.741 639.76C368.993 641.339 367.81 642.673 366.331 643.604C364.852 644.536 363.139 645.027 361.391 645.02ZM292.651 609.71L359.221 640.56C359.842 640.852 360.515 641.018 361.201 641.048C361.887 641.079 362.572 640.973 363.216 640.737C363.861 640.5 364.452 640.139 364.956 639.672C365.46 639.206 365.866 638.644 366.151 638.02L374.081 620.91L324.681 598.02L289.751 588.83L292.651 609.71Z" fill="black"/>
<path d="M296.151 625.54L252.931 605.54C251.342 604.803 250.11 603.466 249.506 601.821C248.902 600.177 248.976 598.36 249.711 596.77C252.736 590.247 258.227 585.192 264.978 582.717C271.729 580.241 279.186 580.548 285.711 583.57C288.942 585.067 291.846 587.185 294.258 589.805C296.67 592.424 298.542 595.493 299.768 598.836C300.994 602.179 301.549 605.73 301.402 609.288C301.255 612.846 300.408 616.339 298.911 619.57L296.151 625.54Z" fill="black"/>
<path d="M636.321 203.91L614.151 205.26C604.021 205.875 594.062 202.442 586.463 195.716C578.864 188.989 574.249 179.52 573.631 169.39L572.381 148.78C572.11 144.321 572.721 139.853 574.177 135.63C575.634 131.408 577.909 127.513 580.871 124.17C583.834 120.827 587.426 118.1 591.443 116.146C595.46 114.191 599.822 113.048 604.281 112.78L621.561 111.73C634.064 110.981 646.354 115.226 655.729 123.532C665.105 131.839 670.799 143.527 671.561 156.03L672.021 163.63C672.628 173.705 669.208 183.61 662.513 191.163C655.818 198.717 646.396 203.302 636.321 203.91Z" fill="black"/>
<path d="M257.781 703.02C257.305 703.027 256.841 702.863 256.475 702.559C256.108 702.255 255.862 701.83 255.781 701.36L202.151 393.35L120.351 701.2C120.203 701.695 119.868 702.114 119.418 702.368C118.967 702.623 118.436 702.692 117.935 702.563C117.434 702.433 117.003 702.115 116.732 701.674C116.461 701.234 116.371 700.705 116.481 700.2L202.951 374.71L259.751 700.71C259.842 701.228 259.725 701.761 259.425 702.193C259.126 702.626 258.668 702.923 258.151 703.02C258.028 703.031 257.904 703.031 257.781 703.02Z" fill="black"/>
<path d="M569.291 356.19H164.321C159.466 356.19 155.531 360.125 155.531 364.98V375.24C155.531 380.095 159.466 384.03 164.321 384.03H569.291C574.145 384.03 578.081 380.095 578.081 375.24V364.98C578.081 360.125 574.145 356.19 569.291 356.19Z" fill="black"/>
<path d="M541.381 66.1599H469.541C459.108 66.1599 450.651 74.6173 450.651 85.0499C450.651 95.4826 459.108 103.94 469.541 103.94H541.381C551.814 103.94 560.271 95.4826 560.271 85.0499C560.271 74.6173 551.814 66.1599 541.381 66.1599Z" fill="white"/>
<path d="M541.391 105.93H469.541C466.76 105.991 463.994 105.496 461.407 104.473C458.82 103.451 456.463 101.923 454.475 99.9772C452.486 98.0318 450.907 95.7089 449.828 93.1447C448.749 90.5806 448.194 87.8268 448.194 85.045C448.194 82.2632 448.749 79.5095 449.828 76.9453C450.907 74.3812 452.486 72.0582 454.475 70.1129C456.463 68.1675 458.82 66.6388 461.407 65.6166C463.994 64.5944 466.76 64.0992 469.541 64.16H541.391C544.172 64.0992 546.937 64.5944 549.524 65.6166C552.112 66.6388 554.468 68.1675 556.457 70.1129C558.445 72.0582 560.025 74.3812 561.104 76.9453C562.182 79.5095 562.738 82.2632 562.738 85.045C562.738 87.8268 562.182 90.5806 561.104 93.1447C560.025 95.7089 558.445 98.0318 556.457 99.9772C554.468 101.923 552.112 103.451 549.524 104.473C546.937 105.496 544.172 105.991 541.391 105.93ZM469.541 68.16C467.289 68.1052 465.049 68.5014 462.952 69.3254C460.856 70.1493 458.945 71.3842 457.333 72.9576C455.721 74.5309 454.44 76.4108 453.565 78.4867C452.691 80.5626 452.24 82.7924 452.24 85.045C452.24 87.2976 452.691 89.5275 453.565 91.6034C454.44 93.6792 455.721 95.5591 457.333 97.1325C458.945 98.7058 460.856 99.9408 462.952 100.765C465.049 101.589 467.289 101.985 469.541 101.93H541.391C543.643 101.985 545.883 101.589 547.979 100.765C550.076 99.9408 551.987 98.7058 553.599 97.1325C555.211 95.5591 556.492 93.6792 557.367 91.6034C558.241 89.5275 558.692 87.2976 558.692 85.045C558.692 82.7924 558.241 80.5626 557.367 78.4867C556.492 76.4108 555.211 74.5309 553.599 72.9576C551.987 71.3842 550.076 70.1493 547.979 69.3254C545.883 68.5014 543.643 68.1052 541.391 68.16H469.541Z" fill="black"/>
<path d="M481.841 94.1501L476.721 91.4501C476.645 91.4107 476.561 91.3901 476.476 91.3901C476.39 91.3901 476.306 91.4107 476.231 91.4501L471.111 94.1501C471.023 94.1938 470.926 94.2125 470.828 94.2041C470.731 94.1958 470.638 94.1607 470.559 94.1028C470.481 94.0448 470.42 93.9663 470.383 93.8758C470.346 93.7854 470.335 93.6865 470.351 93.5901L471.351 87.8901C471.363 87.8047 471.355 87.7177 471.327 87.636C471.299 87.5544 471.252 87.4804 471.191 87.4201L467.051 83.4201C466.98 83.3524 466.93 83.2662 466.907 83.1714C466.883 83.0767 466.886 82.9771 466.917 82.8842C466.947 82.7913 467.003 82.7089 467.078 82.6462C467.153 82.5836 467.244 82.5434 467.341 82.5301L473.071 81.6901C473.154 81.6799 473.233 81.6489 473.301 81.6C473.37 81.5511 473.424 81.4858 473.461 81.4101L476.031 76.2201C476.073 76.1311 476.139 76.0559 476.223 76.0032C476.306 75.9506 476.402 75.9226 476.501 75.9226C476.599 75.9226 476.696 75.9506 476.779 76.0032C476.862 76.0559 476.929 76.1311 476.971 76.2201L479.531 81.4101C479.569 81.486 479.626 81.5512 479.696 81.6C479.765 81.6488 479.846 81.6798 479.931 81.6901L485.651 82.5301C485.747 82.5434 485.839 82.5836 485.914 82.6462C485.989 82.7089 486.044 82.7913 486.075 82.8842C486.105 82.9771 486.108 83.0767 486.085 83.1714C486.061 83.2662 486.011 83.3524 485.941 83.4201L481.801 87.4201C481.74 87.4809 481.695 87.5553 481.669 87.637C481.643 87.7187 481.637 87.8055 481.651 87.8901L482.651 93.5901C482.674 93.6935 482.667 93.8016 482.628 93.9005C482.59 93.9993 482.523 94.0844 482.436 94.1447C482.348 94.205 482.245 94.2378 482.139 94.2388C482.033 94.2397 481.929 94.2089 481.841 94.1501Z" fill="#FFBB45"/>
<path d="M510.831 94.1499L505.711 91.4499C505.635 91.4105 505.551 91.3899 505.466 91.3899C505.381 91.3899 505.297 91.4105 505.221 91.4499L500.101 94.1499C500.013 94.1964 499.914 94.2172 499.815 94.2102C499.716 94.2032 499.621 94.1685 499.541 94.1102C499.461 94.0518 499.399 93.9721 499.362 93.8802C499.324 93.7882 499.314 93.6877 499.331 93.59L500.331 87.8899C500.347 87.8053 500.341 87.7181 500.315 87.636C500.289 87.554 500.243 87.4797 500.181 87.4199L496.041 83.4199C495.97 83.3522 495.921 83.266 495.897 83.1712C495.873 83.0765 495.877 82.9769 495.907 82.884C495.937 82.7912 495.993 82.7087 496.068 82.646C496.143 82.5834 496.234 82.5432 496.331 82.5299L502.061 81.6899C502.144 81.6797 502.224 81.6487 502.292 81.5998C502.36 81.5509 502.415 81.4856 502.451 81.4099L505.011 76.2199C505.055 76.1314 505.122 76.0569 505.206 76.0048C505.29 75.9527 505.387 75.925 505.486 75.925C505.585 75.925 505.682 75.9527 505.765 76.0048C505.849 76.0569 505.917 76.1314 505.961 76.2199L508.521 81.4099C508.557 81.4856 508.612 81.5509 508.68 81.5998C508.748 81.6487 508.828 81.6797 508.911 81.6899L514.641 82.5299C514.738 82.5432 514.829 82.5834 514.904 82.646C514.979 82.7087 515.035 82.7912 515.065 82.884C515.095 82.9769 515.099 83.0765 515.075 83.1712C515.051 83.266 515.001 83.3522 514.931 83.4199L510.791 87.4199C510.729 87.4797 510.683 87.554 510.657 87.636C510.63 87.7181 510.625 87.8053 510.641 87.8899L511.641 93.59C511.665 93.6933 511.657 93.8014 511.618 93.9003C511.58 93.9992 511.513 94.0842 511.426 94.1445C511.339 94.2049 511.235 94.2376 511.129 94.2386C511.023 94.2395 510.919 94.2087 510.831 94.1499Z" fill="#FFBB45"/>
<path d="M539.821 94.1501L534.701 91.4501C534.625 91.4107 534.541 91.3901 534.456 91.3901C534.371 91.3901 534.287 91.4107 534.211 91.4501L529.091 94.1501C529.003 94.1965 528.905 94.2174 528.806 94.2104C528.707 94.2034 528.612 94.1687 528.531 94.1104C528.451 94.052 528.389 93.9723 528.352 93.8804C528.315 93.7884 528.304 93.6878 528.321 93.5901L529.321 87.8901C529.335 87.8055 529.329 87.7187 529.303 87.637C529.277 87.5553 529.232 87.4809 529.171 87.4201L525.031 83.4201C524.961 83.3524 524.911 83.2662 524.887 83.1714C524.863 83.0767 524.867 82.9771 524.897 82.8842C524.927 82.7913 524.983 82.7089 525.058 82.6462C525.133 82.5836 525.224 82.5434 525.321 82.5301L531.041 81.6901C531.125 81.6789 531.206 81.6477 531.275 81.5989C531.345 81.5502 531.402 81.4854 531.441 81.4101L534.001 76.2201C534.043 76.1311 534.11 76.0559 534.193 76.0032C534.276 75.9506 534.373 75.9226 534.471 75.9226C534.57 75.9226 534.666 75.9506 534.749 76.0032C534.832 76.0559 534.899 76.1311 534.941 76.2201L537.501 81.4101C537.54 81.4854 537.597 81.5502 537.667 81.5989C537.737 81.6477 537.817 81.6789 537.901 81.6901L543.631 82.5301C543.728 82.5434 543.819 82.5836 543.894 82.6462C543.969 82.7089 544.025 82.7913 544.055 82.8842C544.085 82.9771 544.089 83.0767 544.065 83.1714C544.041 83.2662 543.992 83.3524 543.921 83.4201L539.771 87.4201C539.711 87.4809 539.665 87.5553 539.639 87.637C539.613 87.7187 539.607 87.8055 539.621 87.8901L540.621 93.5901C540.643 93.692 540.634 93.7981 540.596 93.8951C540.558 93.9921 540.492 94.0757 540.407 94.1354C540.322 94.1952 540.22 94.2284 540.116 94.2311C540.012 94.2337 539.909 94.2055 539.821 94.1501Z" fill="#FFBB45"/>
<path d="M491.151 123.64H236.651C226.036 123.64 217.431 132.245 217.431 142.86V300.15C217.431 310.765 226.036 319.37 236.651 319.37H491.151C501.766 319.37 510.371 310.765 510.371 300.15V142.86C510.371 132.245 501.766 123.64 491.151 123.64Z" fill="black"/>
<path d="M476.331 140.53H251.471C243.38 140.53 236.821 147.089 236.821 155.18V291.77C236.821 299.861 243.38 306.42 251.471 306.42H476.331C484.422 306.42 490.981 299.861 490.981 291.77V155.18C490.981 147.089 484.422 140.53 476.331 140.53Z" fill="white"/>
<path d="M381.641 168.25H317.821C312.155 168.25 307.561 172.844 307.561 178.51V273.64C307.561 279.306 312.155 283.9 317.821 283.9H381.641C387.307 283.9 391.901 279.306 391.901 273.64V178.51C391.901 172.844 387.307 168.25 381.641 168.25Z" fill="#6DC8C2"/>
<path d="M284.721 165.11H262.191C259.822 165.11 257.901 167.031 257.901 169.4V191.93C257.901 194.299 259.822 196.22 262.191 196.22H284.721C287.09 196.22 289.011 194.299 289.011 191.93V169.4C289.011 167.031 287.09 165.11 284.721 165.11Z" fill="#6DC8C2"/>
<path d="M283.891 210.85H263.021C260.193 210.85 257.901 213.142 257.901 215.97V236.84C257.901 239.668 260.193 241.96 263.021 241.96H283.891C286.719 241.96 289.011 239.668 289.011 236.84V215.97C289.011 213.142 286.719 210.85 283.891 210.85Z" fill="#FFC1EB"/>
<path d="M283.831 256.58H263.081C260.22 256.58 257.901 258.899 257.901 261.76V282.51C257.901 285.371 260.22 287.69 263.081 287.69H283.831C286.692 287.69 289.011 285.371 289.011 282.51V261.76C289.011 258.899 286.692 256.58 283.831 256.58Z" fill="#FFBB45"/>
<path d="M475.221 172.51H408.461C407.931 172.51 407.422 172.299 407.047 171.924C406.672 171.549 406.461 171.04 406.461 170.51C406.461 169.98 406.672 169.471 407.047 169.096C407.422 168.721 407.931 168.51 408.461 168.51H475.221C475.751 168.51 476.26 168.721 476.635 169.096C477.01 169.471 477.221 169.98 477.221 170.51C477.221 171.04 477.01 171.549 476.635 171.924C476.26 172.299 475.751 172.51 475.221 172.51Z" fill="black"/>
<path d="M475.221 191.02H408.461C407.931 191.02 407.422 190.809 407.047 190.434C406.672 190.059 406.461 189.55 406.461 189.02C406.461 188.49 406.672 187.981 407.047 187.606C407.422 187.231 407.931 187.02 408.461 187.02H475.221C475.751 187.02 476.26 187.231 476.635 187.606C477.01 187.981 477.221 188.49 477.221 189.02C477.221 189.55 477.01 190.059 476.635 190.434C476.26 190.809 475.751 191.02 475.221 191.02Z" fill="black"/>
<path d="M454.491 209.44H408.491C407.96 209.44 407.452 209.229 407.077 208.854C406.701 208.479 406.491 207.97 406.491 207.44C406.491 206.91 406.701 206.401 407.077 206.026C407.452 205.651 407.96 205.44 408.491 205.44H454.491C455.021 205.44 455.53 205.651 455.905 206.026C456.28 206.401 456.491 206.91 456.491 207.44C456.491 207.97 456.28 208.479 455.905 208.854C455.53 209.229 455.021 209.44 454.491 209.44Z" fill="black"/>
<path d="M443.221 223.36H415.401C410.502 223.36 406.531 227.331 406.531 232.23C406.531 237.129 410.502 241.1 415.401 241.1H443.221C448.12 241.1 452.091 237.129 452.091 232.23C452.091 227.331 448.12 223.36 443.221 223.36Z" fill="#FFC1EB"/>
<path d="M470.611 240.57C475.211 240.57 478.941 236.841 478.941 232.24C478.941 227.64 475.211 223.91 470.611 223.91C466.01 223.91 462.281 227.64 462.281 232.24C462.281 236.841 466.01 240.57 470.611 240.57Z" fill="#FB6D6D"/>
<path d="M366.541 356.19H296.861L325.391 319.37H397.931L366.541 356.19Z" fill="black"/>
<path d="M667.851 485.18C667.686 485.18 667.521 485.16 667.361 485.12C667.106 485.056 666.866 484.942 666.655 484.785C666.445 484.628 666.267 484.431 666.132 484.205C665.997 483.98 665.909 483.73 665.871 483.47C665.833 483.21 665.846 482.945 665.911 482.69L692.231 378.69C692.363 378.175 692.695 377.735 693.152 377.465C693.61 377.195 694.156 377.117 694.671 377.25C695.185 377.383 695.626 377.714 695.896 378.172C696.166 378.629 696.243 379.175 696.111 379.69L669.791 483.69C669.678 484.118 669.426 484.496 669.075 484.766C668.724 485.036 668.293 485.181 667.851 485.18Z" fill="black"/>
<path d="M523.301 698.65C523.211 698.66 523.121 698.66 523.031 698.65C522.77 698.615 522.519 698.53 522.291 698.398C522.063 698.266 521.864 698.091 521.704 697.882C521.544 697.673 521.427 697.434 521.36 697.18C521.292 696.926 521.276 696.661 521.311 696.4L548.241 497.59C548.276 497.327 548.362 497.074 548.495 496.845C548.627 496.615 548.804 496.414 549.014 496.253C549.224 496.092 549.464 495.974 549.72 495.906C549.976 495.837 550.243 495.82 550.506 495.855C550.769 495.89 551.022 495.976 551.251 496.108C551.48 496.241 551.681 496.418 551.843 496.628C552.004 496.838 552.122 497.078 552.19 497.334C552.258 497.59 552.276 497.857 552.241 498.12L525.281 696.92C525.216 697.399 524.979 697.838 524.615 698.156C524.251 698.474 523.784 698.649 523.301 698.65Z" fill="black"/>
<path d="M697.227 271.511L676.942 360.868C675.232 368.403 679.953 375.897 687.488 377.608L702.76 381.075C710.294 382.785 717.789 378.064 719.499 370.529L739.784 281.172C741.495 273.638 736.773 266.143 729.239 264.432L713.967 260.966C706.432 259.255 698.938 263.977 697.227 271.511Z" fill="#C7B8F8"/>
<path d="M669.261 698.65C668.776 698.655 668.305 698.483 667.937 698.167C667.569 697.85 667.329 697.411 667.261 696.93L639.151 498.11C639.077 497.58 639.216 497.041 639.539 496.614C639.861 496.186 640.34 495.904 640.871 495.83C641.401 495.756 641.94 495.895 642.367 496.218C642.795 496.54 643.077 497.02 643.151 497.55L671.251 696.37C671.325 696.895 671.188 697.428 670.869 697.852C670.55 698.276 670.076 698.556 669.551 698.63C669.455 698.647 669.358 698.654 669.261 698.65Z" fill="black"/>
<path d="M659.951 632.75H532.221C531.69 632.75 531.182 632.539 530.806 632.164C530.431 631.789 530.221 631.28 530.221 630.75C530.221 630.22 530.431 629.711 530.806 629.336C531.182 628.961 531.69 628.75 532.221 628.75H659.951C660.481 628.75 660.99 628.961 661.365 629.336C661.74 629.711 661.951 630.22 661.951 630.75C661.951 631.28 661.74 631.789 661.365 632.164C660.99 632.539 660.481 632.75 659.951 632.75Z" fill="black"/>
<path d="M658.181 450.91H537.121C529.488 450.91 523.301 457.098 523.301 464.73V484.01C523.301 491.643 529.488 497.83 537.121 497.83H658.181C665.813 497.83 672.001 491.643 672.001 484.01V464.73C672.001 457.098 665.813 450.91 658.181 450.91Z" fill="#C7B8F8"/>
<path d="M675.681 147.22C692.056 147.22 705.331 133.945 705.331 117.57C705.331 101.195 692.056 87.9199 675.681 87.9199C659.306 87.9199 646.031 101.195 646.031 117.57C646.031 133.945 659.306 147.22 675.681 147.22Z" fill="black"/>
<path d="M730.121 130.6C752.102 130.6 769.921 112.781 769.921 90.8C769.921 68.8191 752.102 51 730.121 51C708.14 51 690.321 68.8191 690.321 90.8C690.321 112.781 708.14 130.6 730.121 130.6Z" fill="black"/>
<path d="M656.311 173.69C656.311 170.242 654.941 166.936 652.503 164.498C650.065 162.06 646.759 160.69 643.311 160.69C642.702 160.696 642.094 160.743 641.491 160.83L639.001 126.71L590.471 131.92C585.487 132.451 580.875 134.807 577.524 138.534C574.173 142.262 572.32 147.098 572.321 152.11V157.6C572.364 163.962 570.595 170.206 567.221 175.6L567.131 175.73V175.78C566.763 176.336 566.517 176.963 566.41 177.621C566.304 178.279 566.339 178.953 566.513 179.596C566.687 180.24 566.996 180.839 567.42 181.353C567.844 181.868 568.373 182.286 568.971 182.58L572.351 184.24V197.1C572.35 199.656 572.904 202.183 573.973 204.505C575.042 206.827 576.601 208.89 578.543 210.552C580.486 212.214 582.765 213.436 585.224 214.133C587.684 214.83 590.265 214.986 592.791 214.59L605.251 212.65L607.751 234.02L647.421 229.34L644.731 206.53H644.851L643.401 186.68C646.831 186.656 650.113 185.277 652.532 182.844C654.95 180.411 656.308 177.121 656.311 173.69Z" fill="white"/>
<path d="M606.001 236.24L603.491 215.02L593.091 216.64C590.28 217.079 587.408 216.904 584.671 216.127C581.935 215.351 579.399 213.99 577.238 212.14C575.077 210.29 573.343 207.994 572.154 205.41C570.965 202.826 570.35 200.015 570.351 197.17V185.54L568.081 184.43C567.235 184.018 566.487 183.432 565.886 182.71C565.284 181.987 564.843 181.146 564.591 180.24C564.34 179.315 564.286 178.347 564.432 177.4C564.578 176.452 564.922 175.546 565.441 174.74L565.551 174.57C568.735 169.494 570.401 163.612 570.351 157.62V152.13C570.34 146.624 572.37 141.309 576.049 137.213C579.728 133.116 584.795 130.529 590.271 129.95L640.861 124.52L643.361 158.71C647.096 158.786 650.669 160.252 653.38 162.824C656.091 165.395 657.745 168.886 658.018 172.612C658.29 176.339 657.162 180.033 654.855 182.971C652.547 185.91 649.226 187.882 645.541 188.5L646.971 208.21L649.671 231.09L606.001 236.24ZM607.001 210.4L609.521 231.8L645.221 227.59L642.541 204.86H642.741L641.271 184.71H643.411C646.328 184.702 649.123 183.536 651.18 181.467C653.237 179.398 654.389 176.597 654.381 173.68C654.373 170.763 653.206 167.968 651.138 165.911C649.069 163.853 646.268 162.702 643.351 162.71C642.835 162.715 642.321 162.755 641.811 162.83L639.691 163.13L637.151 128.94L590.671 133.94C586.177 134.415 582.019 136.538 579 139.899C575.98 143.261 574.313 147.622 574.321 152.14V157.63C574.37 164.384 572.486 171.012 568.891 176.73L568.791 176.89C568.571 177.224 568.425 177.601 568.361 177.996C568.297 178.39 568.318 178.794 568.421 179.18C568.519 179.542 568.694 179.878 568.934 180.167C569.173 180.455 569.473 180.688 569.811 180.85L574.321 183.05V197.16C574.321 199.427 574.812 201.666 575.76 203.725C576.708 205.784 578.09 207.613 579.811 209.088C581.532 210.562 583.553 211.646 585.733 212.267C587.913 212.887 590.201 213.028 592.441 212.68L607.001 210.4Z" fill="black"/>
<path d="M585.151 199.19C584.641 199.19 584.133 199.147 583.631 199.06C581.699 198.726 579.906 197.836 578.471 196.5C578.073 196.142 577.834 195.641 577.806 195.106C577.777 194.572 577.963 194.048 578.321 193.65C578.679 193.252 579.18 193.013 579.715 192.985C580.249 192.957 580.773 193.142 581.171 193.5C582.04 194.305 583.117 194.849 584.281 195.07C587.981 195.68 590.891 192.07 590.921 192.07C591.255 191.676 591.728 191.427 592.242 191.374C592.756 191.321 593.27 191.469 593.677 191.787C594.084 192.105 594.353 192.568 594.426 193.079C594.499 193.591 594.372 194.111 594.071 194.53C593.861 194.76 590.331 199.19 585.151 199.19Z" fill="black"/>
<path d="M593.341 172.08C595.081 172.08 596.491 170.67 596.491 168.93C596.491 167.19 595.081 165.78 593.341 165.78C591.601 165.78 590.191 167.19 590.191 168.93C590.191 170.67 591.601 172.08 593.341 172.08Z" fill="black"/>
<path d="M641.991 180.44C640.927 180.44 639.887 180.124 639.002 179.533C638.117 178.942 637.428 178.102 637.02 177.119C636.613 176.136 636.507 175.054 636.714 174.01C636.922 172.967 637.434 172.008 638.187 171.256C638.939 170.503 639.898 169.991 640.941 169.783C641.985 169.576 643.067 169.682 644.05 170.089C645.033 170.497 645.873 171.186 646.464 172.071C647.055 172.956 647.371 173.996 647.371 175.06C647.371 176.487 646.804 177.855 645.795 178.864C644.786 179.873 643.418 180.44 641.991 180.44ZM641.991 173.68C641.718 173.68 641.451 173.761 641.224 173.913C640.997 174.064 640.82 174.28 640.716 174.532C640.611 174.784 640.584 175.061 640.637 175.329C640.691 175.597 640.822 175.843 641.015 176.036C641.208 176.229 641.454 176.36 641.722 176.413C641.989 176.467 642.267 176.439 642.519 176.335C642.771 176.23 642.987 176.054 643.138 175.827C643.29 175.6 643.371 175.333 643.371 175.06C643.371 174.694 643.225 174.343 642.967 174.084C642.708 173.825 642.357 173.68 641.991 173.68Z" fill="black"/>
<path d="M609.791 228.62L670.651 225.86C679.754 225.351 688.69 228.46 695.511 234.51C704.281 242.51 711.141 257.2 701.591 283.9L688.151 308.95L612.151 299.75L599.021 325.29L551.321 330.74C550.141 330.87 546.491 324.59 545.981 323.8C542.184 318.014 539.712 311.462 538.741 304.61C536.241 285.09 550.741 269.41 561.971 255.14C573.891 239.92 589.731 229.53 609.791 228.62Z" fill="#FFC1EB"/>
<path d="M638.731 177.94C638.261 177.949 637.804 177.793 637.438 177.498C637.073 177.204 636.822 176.79 636.731 176.33C636.459 174.984 636.545 173.591 636.981 172.289C637.416 170.987 638.185 169.822 639.211 168.91C640.204 168.08 641.38 167.498 642.642 167.211C643.904 166.924 645.216 166.941 646.471 167.26C646.724 167.33 646.961 167.45 647.169 167.612C647.376 167.774 647.549 167.975 647.679 168.204C647.808 168.433 647.891 168.685 647.924 168.946C647.956 169.207 647.936 169.472 647.866 169.725C647.796 169.979 647.676 170.216 647.514 170.423C647.352 170.63 647.151 170.804 646.922 170.933C646.693 171.063 646.441 171.146 646.18 171.178C645.919 171.21 645.654 171.19 645.401 171.12C644.788 170.971 644.149 170.965 643.534 171.102C642.918 171.239 642.343 171.516 641.851 171.91C641.352 172.358 640.979 172.929 640.768 173.566C640.558 174.202 640.517 174.883 640.651 175.54C640.703 175.797 640.705 176.063 640.655 176.321C640.605 176.579 640.505 176.824 640.36 177.043C640.215 177.262 640.028 177.451 639.81 177.598C639.593 177.745 639.348 177.848 639.091 177.9C638.972 177.921 638.851 177.934 638.731 177.94Z" fill="black"/>
<path d="M590.491 131.94C590.491 131.94 589.841 172.23 641.901 160.79L639.021 126.73L590.491 131.94Z" fill="black"/>
<path d="M594.071 186.43C585.811 186.43 579.071 178.64 579.071 169.05C579.071 159.46 585.801 151.67 594.071 151.67C602.341 151.67 609.071 159.47 609.071 169.05C609.071 178.63 602.341 186.43 594.071 186.43ZM594.071 155.67C588.011 155.67 583.071 161.67 583.071 169.05C583.071 176.43 588.001 182.43 594.071 182.43C600.141 182.43 605.071 176.43 605.071 169.05C605.071 161.67 600.151 155.67 594.071 155.67Z" fill="black"/>
<path d="M662.591 396.91H586.151V346.17H656.781C661.771 362.593 663.753 379.782 662.631 396.91H662.591Z" fill="black"/>
<path d="M469.881 356.19H430.501C428.307 356.194 426.142 355.687 424.178 354.71C422.214 353.733 420.504 352.312 419.184 350.56C417.864 348.808 416.969 346.773 416.571 344.616C416.173 342.458 416.282 340.238 416.891 338.13C417.716 335.298 419.438 332.81 421.799 331.041C424.16 329.272 427.031 328.317 429.981 328.32H470.391C473.235 328.319 476.009 329.208 478.323 330.863C480.637 332.519 482.374 334.857 483.291 337.55C484.009 339.677 484.21 341.945 483.877 344.165C483.544 346.385 482.687 348.494 481.376 350.316C480.065 352.139 478.338 353.622 476.339 354.644C474.34 355.665 472.126 356.195 469.881 356.19Z" fill="#F3EAD6"/>
<path d="M610.971 299.75L598.031 325.29L523.501 332.71C520.714 332.988 517.907 332.45 515.421 331.16L483.151 314.4C483.151 314.4 471.881 308.09 455.591 314.89L428.151 327.34C426.999 327.838 426.032 328.685 425.386 329.761C424.74 330.837 424.448 332.089 424.551 333.34V333.4C424.619 333.912 424.797 334.404 425.071 334.841C425.346 335.279 425.711 335.653 426.142 335.937C426.574 336.221 427.061 336.41 427.571 336.49C428.082 336.57 428.603 336.539 429.101 336.4L458.151 328.25L444.541 340.56C442.537 342.355 441.14 344.727 440.541 347.35C439.621 351.62 440.731 357.41 451.791 360.05C451.791 360.05 456.881 368.6 465.541 364.05C465.591 364.05 466.821 365.14 466.921 365.21C468.273 366.253 469.719 367.167 471.241 367.94C476.007 370.309 481.223 371.635 486.541 371.83C489.841 371.99 492.941 370.55 493.371 366.97L496.151 367.26C504.818 368.147 513.448 369.42 522.041 371.08L587.771 383.79C605.771 386.34 618.651 382.49 625.221 379.89C644.421 372.3 656.861 358.8 666.841 341.65L685.841 308.94L610.971 299.75Z" fill="white"/>
<path d="M599.521 386.65C595.506 386.641 591.496 386.351 587.521 385.78H587.421L521.651 373.02C513.171 371.38 504.521 370.11 495.941 369.22L494.861 369.11C493.641 372.18 490.461 374.01 486.431 373.81C480.828 373.596 475.333 372.195 470.311 369.7C468.685 368.865 467.135 367.888 465.681 366.78L465.291 366.44L465.221 366.38C458.221 369.31 452.841 365.07 450.531 361.77C438.061 358.5 437.671 351.08 438.531 346.9C439.22 343.858 440.85 341.111 443.191 339.05L450.511 332.43L429.571 338.28C428.802 338.496 427.995 338.545 427.205 338.424C426.415 338.303 425.66 338.015 424.991 337.578C424.321 337.142 423.753 336.567 423.324 335.893C422.894 335.219 422.614 334.461 422.501 333.67C422.322 331.987 422.681 330.289 423.527 328.823C424.374 327.357 425.664 326.197 427.211 325.51L454.761 313.04C471.811 305.92 483.631 312.35 484.131 312.63L516.301 329.35C518.453 330.473 520.887 330.939 523.301 330.69L596.731 323.38L609.811 297.57L689.151 307.33L668.581 342.67C657.101 362.38 643.581 374.8 625.971 381.76C617.543 385.048 608.568 386.707 599.521 386.65ZM588.091 381.82C601.191 383.67 613.441 382.4 624.481 378.04C641.421 371.34 653.951 359.81 665.101 340.66L682.621 310.56L612.151 301.91L599.351 327.17L523.731 334.7C520.558 335.017 517.36 334.402 514.531 332.93L482.301 316.18C481.821 315.92 471.541 310.42 456.431 316.74L428.971 329.16C428.207 329.48 427.561 330.028 427.122 330.73C426.684 331.432 426.474 332.253 426.521 333.08C426.55 333.312 426.629 333.536 426.752 333.735C426.874 333.934 427.038 334.105 427.232 334.236C427.427 334.367 427.647 334.454 427.878 334.493C428.108 334.532 428.345 334.52 428.571 334.46L465.811 324.02L445.921 342.02C444.203 343.519 442.999 345.52 442.481 347.74C441.391 352.79 444.671 356.27 452.241 358.07L453.061 358.27L453.491 359C453.921 359.7 457.871 365.79 464.601 362.25C465.861 361.59 466.691 362.33 467.951 363.45L468.181 363.66C469.438 364.607 470.777 365.44 472.181 366.15C476.695 368.378 481.63 369.626 486.661 369.81C487.971 369.87 491.051 369.71 491.401 366.71L491.631 364.71L496.381 365.2C505.071 366.09 513.841 367.38 522.441 369.05L588.091 381.82Z" fill="black"/>
<path d="M497.331 685.68H413.171C410.951 685.68 409.151 687.48 409.151 689.7V693.21C409.151 695.43 410.951 697.23 413.171 697.23H497.331C499.551 697.23 501.351 695.43 501.351 693.21V689.7C501.351 687.48 499.551 685.68 497.331 685.68Z" fill="black"/>
<path d="M399.561 665.19L438.241 658.29H494.821V679.15C494.821 681.057 494.064 682.886 492.715 684.234C491.367 685.583 489.538 686.34 487.631 686.34H413.151L399.561 665.19Z" fill="white"/>
<path d="M487.631 688.34H412.081L396.251 663.75L438.251 656.29H496.831V679.15C496.828 681.588 495.858 683.926 494.133 685.649C492.408 687.372 490.069 688.34 487.631 688.34ZM414.261 684.34H487.631C489.007 684.337 490.325 683.79 491.298 682.817C492.271 681.844 492.818 680.526 492.821 679.15V660.29H438.421L402.861 666.63L414.261 684.34Z" fill="black"/>
<path d="M351.581 618.84L328.331 601.84C324.746 599.226 321.712 595.932 319.4 592.145C317.089 588.359 315.546 584.154 314.86 579.771C314.173 575.388 314.357 570.912 315.401 566.6C316.444 562.289 318.327 558.224 320.941 554.64L422.241 415.72C426.074 410.462 430.906 406.01 436.46 402.619C442.014 399.228 448.181 396.965 454.61 395.958C461.039 394.952 467.604 395.221 473.928 396.752C480.253 398.283 486.214 401.045 491.471 404.88C496.729 408.713 501.181 413.545 504.572 419.099C507.963 424.653 510.226 430.82 511.233 437.249C512.239 443.678 511.97 450.243 510.439 456.567C508.908 462.892 506.146 468.853 502.311 474.11L402.631 610.85C396.92 618.679 388.334 623.918 378.761 625.417C369.187 626.915 359.41 624.549 351.581 618.84Z" fill="black"/>
<path d="M593.291 468.02H416.291V433.24C416.294 419.859 421.611 407.027 431.074 397.566C440.537 388.105 453.37 382.79 466.751 382.79H662.591V398.72C662.591 417.1 655.29 434.726 642.294 447.723C629.297 460.719 611.671 468.02 593.291 468.02Z" fill="black"/>
<path d="M478.891 663.18H450.151C441.191 663.18 432.598 659.621 426.261 653.287C419.925 646.952 416.363 638.36 416.361 629.4V463.75H515.461V626.64C515.462 631.441 514.517 636.196 512.679 640.632C510.842 645.068 508.147 649.098 504.751 652.491C501.354 655.885 497.322 658.576 492.885 660.41C488.448 662.244 483.692 663.185 478.891 663.18Z" fill="black"/>
<path d="M363.461 619.54C363.095 619.539 362.737 619.438 362.425 619.247C362.113 619.056 361.859 618.784 361.691 618.459C361.523 618.134 361.447 617.77 361.472 617.405C361.497 617.04 361.621 616.689 361.831 616.39L414.691 541.39C414.997 540.956 415.463 540.662 415.987 540.572C416.51 540.482 417.047 540.604 417.481 540.91C417.915 541.216 418.209 541.682 418.299 542.206C418.389 542.729 418.267 543.266 417.961 543.7L365.101 618.7C364.915 618.961 364.669 619.174 364.383 619.32C364.098 619.466 363.782 619.542 363.461 619.54Z" fill="white"/>
<path d="M484.051 664.81C483.52 664.81 483.012 664.599 482.637 664.224C482.261 663.849 482.051 663.34 482.051 662.81V459.63C482.056 452.107 485.046 444.893 490.365 439.572C495.684 434.251 502.897 431.258 510.421 431.25H588.201C596.372 431.242 604.207 427.992 609.985 422.214C615.763 416.436 619.013 408.602 619.021 400.43V382.79C619.021 382.26 619.232 381.751 619.607 381.376C619.982 381.001 620.49 380.79 621.021 380.79C621.551 380.79 622.06 381.001 622.435 381.376C622.81 381.751 623.021 382.26 623.021 382.79V400.43C623.01 409.662 619.338 418.512 612.811 425.04C606.283 431.568 597.432 435.239 588.201 435.25H510.421C503.958 435.258 497.763 437.829 493.194 442.4C488.625 446.971 486.056 453.167 486.051 459.63V662.81C486.051 663.34 485.84 663.849 485.465 664.224C485.09 664.599 484.581 664.81 484.051 664.81Z" fill="white"/>
<path d="M451.771 362.02C451.34 362.018 450.921 361.877 450.577 361.617C450.233 361.358 449.982 360.994 449.861 360.58C445.221 344.69 462.251 334.87 462.431 334.77C462.659 334.639 462.912 334.554 463.173 334.52C463.434 334.486 463.7 334.504 463.954 334.573C464.209 334.641 464.447 334.759 464.656 334.92C464.865 335.081 465.04 335.282 465.171 335.51C465.302 335.739 465.387 335.991 465.421 336.252C465.455 336.513 465.437 336.779 465.368 337.033C465.3 337.288 465.181 337.526 465.021 337.735C464.86 337.944 464.659 338.119 464.431 338.25C461.824 339.858 459.482 341.862 457.491 344.19C453.491 349.01 452.181 354.14 453.741 359.46C453.889 359.969 453.83 360.517 453.575 360.982C453.319 361.447 452.89 361.792 452.381 361.94C452.182 361.995 451.977 362.022 451.771 362.02Z" fill="black"/>
<path d="M465.531 366.02C465.205 366.019 464.884 365.938 464.597 365.785C464.309 365.631 464.063 365.41 463.881 365.14C462.8 363.673 462.051 361.988 461.685 360.203C461.319 358.418 461.345 356.574 461.761 354.8C463.761 346.38 473.931 340.65 474.371 340.41C474.601 340.264 474.858 340.166 475.127 340.123C475.397 340.079 475.672 340.092 475.936 340.159C476.2 340.226 476.448 340.346 476.664 340.512C476.88 340.679 477.06 340.887 477.192 341.126C477.325 341.364 477.407 341.627 477.434 341.898C477.462 342.169 477.433 342.443 477.35 342.703C477.268 342.963 477.133 343.203 476.954 343.409C476.775 343.615 476.556 343.782 476.311 343.9C476.151 344 467.231 349.06 465.651 355.73C465.368 356.963 465.358 358.243 465.623 359.479C465.887 360.716 466.419 361.88 467.181 362.89C467.386 363.19 467.506 363.541 467.527 363.905C467.548 364.268 467.47 364.631 467.3 364.953C467.13 365.275 466.875 365.544 466.564 365.733C466.252 365.921 465.895 366.02 465.531 366.02Z" fill="black"/>
<path d="M493.361 369.02C492.87 369.023 492.394 368.846 492.025 368.521C491.657 368.197 491.42 367.748 491.361 367.26C490.971 364.06 484.461 360.26 481.361 358.95L478.601 357.77L488.181 348.5C488.567 348.16 489.069 347.981 489.583 348.001C490.096 348.021 490.583 348.239 490.941 348.608C491.299 348.978 491.5 349.471 491.504 349.985C491.508 350.499 491.313 350.995 490.961 351.37L485.591 356.57C489.101 358.45 494.761 362.17 495.321 366.78C495.383 367.305 495.235 367.833 494.909 368.249C494.583 368.665 494.106 368.935 493.581 369L493.361 369.02Z" fill="black"/>
<path d="M424.061 697.24H376.431C374.678 697.24 372.996 696.544 371.757 695.304C370.517 694.064 369.821 692.383 369.821 690.63C369.823 683.438 372.682 676.542 377.767 671.456C382.852 666.371 389.749 663.513 396.941 663.51C404.133 663.51 411.032 666.367 416.118 671.453C421.204 676.539 424.061 683.437 424.061 690.63V697.24Z" fill="black"/>
<path d="M607.071 168.19C606.541 168.219 606.02 168.036 605.625 167.682C605.229 167.328 604.99 166.83 604.961 166.3C604.932 165.77 605.115 165.249 605.469 164.854C605.823 164.458 606.321 164.219 606.851 164.19L638.391 160.7C638.921 160.642 639.453 160.796 639.87 161.13C640.286 161.464 640.553 161.95 640.611 162.48C640.669 163.01 640.515 163.542 640.181 163.959C639.847 164.375 639.361 164.642 638.831 164.7L607.291 168.18L607.071 168.19Z" fill="black"/>
<path d="M605.491 210.65L606.901 222.65L627.781 208.88C627.927 208.786 628.037 208.644 628.092 208.478C628.146 208.312 628.142 208.133 628.08 207.97C628.018 207.807 627.902 207.67 627.75 207.583C627.599 207.496 627.423 207.463 627.251 207.49L605.491 210.65Z" fill="black"/>
<path d="M610.971 301.75C610.696 301.752 610.424 301.698 610.171 301.59C609.691 301.372 609.317 300.973 609.13 300.481C608.943 299.988 608.957 299.442 609.171 298.96L617.371 280.08C617.473 279.835 617.622 279.614 617.811 279.427C617.999 279.241 618.223 279.094 618.468 278.995C618.714 278.896 618.977 278.847 619.242 278.85C619.507 278.853 619.769 278.909 620.012 279.015C620.255 279.12 620.475 279.273 620.658 279.464C620.842 279.655 620.986 279.88 621.081 280.127C621.177 280.374 621.223 280.638 621.216 280.903C621.209 281.167 621.149 281.428 621.041 281.67L612.831 300.55C612.673 300.911 612.413 301.217 612.082 301.431C611.751 301.644 611.365 301.755 610.971 301.75Z" fill="black"/>
<path d="M416.931 590.13C416.4 590.13 415.892 589.919 415.516 589.544C415.141 589.169 414.931 588.661 414.931 588.13V425.41C414.931 424.88 415.141 424.371 415.516 423.996C415.892 423.621 416.4 423.41 416.931 423.41C417.461 423.41 417.97 423.621 418.345 423.996C418.72 424.371 418.931 424.88 418.931 425.41V588.13C418.931 588.661 418.72 589.169 418.345 589.544C417.97 589.919 417.461 590.13 416.931 590.13Z" fill="white"/>
<path d="M923.521 165.75H741.631C729.414 165.75 719.511 175.653 719.511 187.87V298.95C719.511 311.167 729.414 321.07 741.631 321.07H923.521C935.737 321.07 945.641 311.167 945.641 298.95V187.87C945.641 175.653 935.737 165.75 923.521 165.75Z" fill="white"/>
<path d="M923.521 323.07H741.631C735.236 323.062 729.106 320.518 724.584 315.997C720.062 311.475 717.519 305.345 717.511 298.95V187.87C717.519 181.475 720.062 175.345 724.584 170.823C729.106 166.302 735.236 163.758 741.631 163.75H923.521C929.915 163.758 936.046 166.302 940.567 170.823C945.089 175.345 947.633 181.475 947.641 187.87V298.95C947.633 305.345 945.089 311.475 940.567 315.997C936.046 320.518 929.915 323.062 923.521 323.07ZM741.631 167.75C736.296 167.755 731.182 169.877 727.41 173.649C723.638 177.421 721.516 182.535 721.511 187.87V298.95C721.516 304.285 723.638 309.399 727.41 313.171C731.182 316.943 736.296 319.065 741.631 319.07H923.521C928.854 319.062 933.967 316.94 937.739 313.168C941.51 309.397 943.633 304.284 943.641 298.95V187.87C943.635 182.535 941.514 177.421 937.742 173.649C933.97 169.877 928.855 167.755 923.521 167.75H741.631Z" fill="black"/>
<path d="M842.811 222.54C846.539 222.54 849.561 219.518 849.561 215.79C849.561 212.062 846.539 209.04 842.811 209.04C839.083 209.04 836.061 212.062 836.061 215.79C836.061 219.518 839.083 222.54 842.811 222.54Z" fill="#FFC1EB"/>
<path d="M866.191 222.54C869.919 222.54 872.941 219.518 872.941 215.79C872.941 212.062 869.919 209.04 866.191 209.04C862.463 209.04 859.441 212.062 859.441 215.79C859.441 219.518 862.463 222.54 866.191 222.54Z" fill="#FFC1EB"/>
<path d="M889.581 222.54C893.309 222.54 896.331 219.518 896.331 215.79C896.331 212.062 893.309 209.04 889.581 209.04C885.853 209.04 882.831 212.062 882.831 215.79C882.831 219.518 885.853 222.54 889.581 222.54Z" fill="#FFC1EB"/>
<path d="M912.971 222.54C916.699 222.54 919.721 219.518 919.721 215.79C919.721 212.062 916.699 209.04 912.971 209.04C909.243 209.04 906.221 212.062 906.221 215.79C906.221 219.518 909.243 222.54 912.971 222.54Z" fill="#FFC1EB"/>
<path d="M777.571 248.76C784.811 248.76 790.681 242.891 790.681 235.65C790.681 228.41 784.811 222.54 777.571 222.54C770.33 222.54 764.461 228.41 764.461 235.65C764.461 242.891 770.33 248.76 777.571 248.76Z" fill="#6DC8C2"/>
<path d="M776.411 255.46C772.042 255.431 767.737 256.511 763.9 258.599C760.063 260.687 756.818 263.716 754.471 267.4C760.779 272.392 768.532 275.211 776.573 275.436C784.614 275.662 792.513 273.281 799.091 268.65C796.839 264.621 793.547 261.27 789.557 258.95C785.567 256.629 781.026 255.424 776.411 255.46Z" fill="#6DC8C2"/>
<path d="M919.721 243.02H834.721C834.19 243.02 833.682 242.809 833.306 242.434C832.931 242.059 832.721 241.55 832.721 241.02C832.721 240.49 832.931 239.981 833.306 239.606C833.682 239.231 834.19 239.02 834.721 239.02H919.721C920.251 239.02 920.76 239.231 921.135 239.606C921.51 239.981 921.721 240.49 921.721 241.02C921.721 241.55 921.51 242.059 921.135 242.434C920.76 242.809 920.251 243.02 919.721 243.02Z" fill="black"/>
<path d="M919.721 258.72H834.721C834.19 258.72 833.682 258.509 833.306 258.134C832.931 257.759 832.721 257.25 832.721 256.72C832.721 256.19 832.931 255.681 833.306 255.306C833.682 254.931 834.19 254.72 834.721 254.72H919.721C920.251 254.72 920.76 254.931 921.135 255.306C921.51 255.681 921.721 256.19 921.721 256.72C921.721 257.25 921.51 257.759 921.135 258.134C920.76 258.509 920.251 258.72 919.721 258.72Z" fill="black"/>
<path d="M888.151 274.44H834.761C834.23 274.44 833.722 274.229 833.347 273.854C832.971 273.479 832.761 272.97 832.761 272.44C832.761 271.91 832.971 271.401 833.347 271.026C833.722 270.651 834.23 270.44 834.761 270.44H888.151C888.681 270.44 889.19 270.651 889.565 271.026C889.94 271.401 890.151 271.91 890.151 272.44C890.151 272.97 889.94 273.479 889.565 273.854C889.19 274.229 888.681 274.44 888.151 274.44Z" fill="black"/>
<path d="M776.781 276.38C769.805 276.38 762.986 274.312 757.186 270.436C751.386 266.561 746.865 261.052 744.195 254.607C741.526 248.163 740.828 241.071 742.188 234.229C743.549 227.388 746.909 221.103 751.841 216.17C756.774 211.238 763.058 207.879 769.9 206.518C776.742 205.157 783.833 205.855 790.278 208.525C796.723 211.194 802.231 215.715 806.107 221.515C809.982 227.315 812.051 234.134 812.051 241.11C812.04 250.461 808.321 259.426 801.709 266.038C795.097 272.65 786.132 276.37 776.781 276.38ZM776.781 209.85C770.596 209.85 764.55 211.684 759.407 215.121C754.264 218.557 750.257 223.441 747.89 229.156C745.524 234.87 744.905 241.158 746.112 247.224C747.32 253.29 750.299 258.862 754.673 263.235C759.047 267.608 764.62 270.585 770.686 271.79C776.753 272.996 783.041 272.375 788.754 270.007C794.468 267.639 799.351 263.629 802.786 258.485C806.22 253.342 808.053 247.295 808.051 241.11C808.04 232.821 804.742 224.874 798.88 219.014C793.017 213.154 785.07 209.858 776.781 209.85Z" fill="black"/>
<path d="M818.881 382.79H752.901C744.528 382.79 737.741 389.577 737.741 397.95V463.93C737.741 472.303 744.528 479.09 752.901 479.09H818.881C827.253 479.09 834.041 472.303 834.041 463.93V397.95C834.041 389.577 827.253 382.79 818.881 382.79Z" fill="white"/>
<path d="M818.881 481.09H752.881C748.33 481.087 743.966 479.279 740.746 476.062C737.527 472.844 735.716 468.481 735.711 463.93V397.93C735.716 393.379 737.527 389.016 740.746 385.798C743.966 382.581 748.33 380.773 752.881 380.77H818.881C823.432 380.773 827.796 382.581 831.016 385.798C834.235 389.016 836.046 393.379 836.051 397.93V463.93C836.046 468.481 834.235 472.844 831.016 476.062C827.796 479.279 823.432 481.087 818.881 481.09ZM752.881 384.79C749.391 384.793 746.044 386.18 743.575 388.647C741.106 391.114 739.716 394.46 739.711 397.95V463.95C739.716 467.44 741.106 470.786 743.575 473.253C746.044 475.72 749.391 477.107 752.881 477.11H818.881C822.371 477.107 825.718 475.72 828.187 473.253C830.656 470.786 832.046 467.44 832.051 463.95V397.95C832.046 394.46 830.656 391.114 828.187 388.647C825.718 386.18 822.371 384.793 818.881 384.79H752.881Z" fill="black"/>
<path d="M770.491 453.73V431.1C770.482 430.694 770.584 430.292 770.787 429.94C770.99 429.587 771.285 429.297 771.641 429.1C774.801 427.33 783.491 421.44 784.501 409.51C784.871 405.2 786.761 403.17 788.751 402.68C791.051 402.12 793.421 404.52 793.751 404.84C799.161 410.48 793.511 423.41 792.991 424.57L800.141 424.38C801.54 424.344 802.933 424.585 804.24 425.087C805.546 425.59 806.741 426.346 807.755 427.311C808.769 428.276 809.583 429.432 810.15 430.711C810.718 431.991 811.027 433.371 811.061 434.77L811.311 445.01C811.345 446.429 811.096 447.841 810.577 449.162C810.058 450.483 809.279 451.687 808.288 452.702C807.296 453.718 806.112 454.525 804.803 455.076C803.495 455.627 802.09 455.911 800.671 455.91H772.731C772.147 455.91 771.586 455.683 771.168 455.275C770.749 454.868 770.506 454.314 770.491 453.73Z" fill="#6DC8C2"/>
<path d="M770.741 426.21H764.061C762.702 426.21 761.601 427.311 761.601 428.67V455.47C761.601 456.829 762.702 457.93 764.061 457.93H770.741C772.1 457.93 773.201 456.829 773.201 455.47V428.67C773.201 427.311 772.1 426.21 770.741 426.21Z" fill="#FFC1EB"/>
<path d="M207.011 127.33C220.26 127.33 231.001 116.589 231.001 103.34C231.001 90.0908 220.26 79.3501 207.011 79.3501C193.762 79.3501 183.021 90.0908 183.021 103.34C183.021 116.589 193.762 127.33 207.011 127.33Z" fill="#FFBB45"/>
<path d="M208.348 172.901C220.424 149.967 216.713 124.267 200.059 115.497C183.405 106.728 160.115 118.21 148.039 141.143C135.962 164.077 139.674 189.777 156.328 198.547C172.982 207.316 196.272 195.834 208.348 172.901Z" fill="#FFBB45"/>
<path d="M202.969 257.831C207.871 223.166 189.005 191.835 160.831 187.851C132.656 183.866 105.842 208.738 100.94 243.402C96.0379 278.067 114.904 309.398 143.079 313.383C171.253 317.367 198.067 292.496 202.969 257.831Z" fill="#FFBB45"/>
<path d="M24.8406 204.14C37.0903 204.14 47.0206 194.21 47.0206 181.96C47.0206 169.71 37.0903 159.78 24.8406 159.78C12.591 159.78 2.66064 169.71 2.66064 181.96C2.66064 194.21 12.591 204.14 24.8406 204.14Z" fill="#FFBB45"/>
<path d="M48.6794 272.213C65.3869 268.3 74.8058 247.513 69.7171 225.783C64.6284 204.053 46.9591 189.609 30.2516 193.522C13.5441 197.434 4.12522 218.222 9.21393 239.952C14.3026 261.681 31.9719 276.125 48.6794 272.213Z" fill="#FFBB45"/>
<path d="M69.5868 370.041C93.8452 365.864 109.343 338.276 104.203 308.423C99.0622 278.569 75.2298 257.755 50.9714 261.932C26.7131 266.109 11.215 293.696 16.3555 323.549C21.496 353.403 45.3285 374.218 69.5868 370.041Z" fill="#FFBB45"/>
<path d="M98.3709 468.88C97.8811 468.884 97.4068 468.708 97.0382 468.385C96.6695 468.063 96.4321 467.616 96.3709 467.13C84.5609 373.44 52.0209 292.02 51.6909 291.25C51.5833 291.005 51.526 290.74 51.5226 290.472C51.5192 290.204 51.5696 289.939 51.671 289.691C51.7723 289.442 51.9224 289.217 52.1124 289.028C52.3024 288.839 52.5285 288.691 52.7771 288.591C53.0257 288.491 53.2919 288.442 53.5598 288.447C53.8277 288.452 54.0918 288.511 54.3365 288.62C54.5813 288.729 54.8016 288.886 54.9844 289.082C55.1673 289.278 55.3089 289.508 55.4009 289.76C55.7309 290.57 88.4609 372.41 100.401 466.63C100.434 466.892 100.416 467.157 100.347 467.411C100.277 467.666 100.158 467.904 99.9967 468.112C99.835 468.32 99.6337 468.494 99.4045 468.624C99.1752 468.754 98.9225 468.838 98.6609 468.87L98.3709 468.88Z" fill="black"/>
<path d="M122.531 469.91C122 469.91 121.492 469.699 121.117 469.324C120.742 468.949 120.531 468.44 120.531 467.91C120.281 373.91 133.531 298.54 144.681 251.82C156.781 201.15 169.151 172.29 169.251 172.02C169.466 171.541 169.862 171.165 170.352 170.975C170.842 170.785 171.388 170.796 171.87 171.005C172.352 171.214 172.733 171.604 172.93 172.092C173.126 172.579 173.123 173.125 172.921 173.61C172.801 173.89 160.561 202.51 148.541 252.89C137.451 299.37 124.281 374.42 124.541 467.89C124.541 468.42 124.33 468.929 123.955 469.304C123.58 469.679 123.071 469.89 122.541 469.89L122.531 469.91Z" fill="black"/>
<path d="M134.021 467.91H83.5807C68.3543 467.91 56.0107 480.254 56.0107 495.48V686.08C56.0107 701.307 68.3543 713.65 83.5807 713.65H134.021C149.247 713.65 161.591 701.307 161.591 686.08V495.48C161.591 480.254 149.247 467.91 134.021 467.91Z" fill="#6DC8C2"/>
<path d="M61.1509 700.52C60.7595 700.52 60.3764 700.406 60.0494 700.191C59.7223 699.976 59.4655 699.67 59.3109 699.31C59.0976 698.828 59.083 698.282 59.2702 697.789C59.4575 697.297 59.8314 696.898 60.3109 696.68C75.9588 689.903 92.7965 686.3 109.848 686.08C126.899 685.861 143.824 689.028 159.641 695.4C160.117 695.609 160.493 695.994 160.689 696.475C160.886 696.956 160.887 697.495 160.694 697.977C160.5 698.459 160.126 698.847 159.652 699.058C159.177 699.27 158.639 699.288 158.151 699.11C142.822 692.936 126.42 689.867 109.897 690.08C93.3728 690.293 77.0555 693.784 61.8909 700.35C61.6574 700.453 61.4062 700.511 61.1509 700.52Z" fill="black"/>
<path d="M146.951 508.68H72.1509C71.6204 508.68 71.1117 508.469 70.7367 508.094C70.3616 507.719 70.1509 507.21 70.1509 506.68C70.1509 506.149 70.3616 505.641 70.7367 505.266C71.1117 504.891 71.6204 504.68 72.1509 504.68H146.951C147.481 504.68 147.99 504.891 148.365 505.266C148.74 505.641 148.951 506.149 148.951 506.68C148.951 507.21 148.74 507.719 148.365 508.094C147.99 508.469 147.481 508.68 146.951 508.68Z" fill="black"/>
<path d="M127.761 690.07C127.23 690.07 126.722 689.859 126.347 689.484C125.971 689.109 125.761 688.6 125.761 688.07V507.27C125.761 506.74 125.971 506.231 126.347 505.856C126.722 505.481 127.23 505.27 127.761 505.27C128.291 505.27 128.8 505.481 129.175 505.856C129.55 506.231 129.761 506.74 129.761 507.27V688.07C129.761 688.6 129.55 689.109 129.175 689.484C128.8 689.859 128.291 690.07 127.761 690.07Z" fill="black"/>
<path d="M91.291 690.07C90.7606 690.07 90.2519 689.859 89.8768 689.484C89.5017 689.109 89.291 688.6 89.291 688.07V507.27C89.291 506.74 89.5017 506.231 89.8768 505.856C90.2519 505.481 90.7606 505.27 91.291 505.27C91.8214 505.27 92.3302 505.481 92.7052 505.856C93.0803 506.231 93.291 506.74 93.291 507.27V688.07C93.291 688.6 93.0803 689.109 92.7052 689.484C92.3302 689.859 91.8214 690.07 91.291 690.07Z" fill="black"/>
</svg>
